<mxfile host="Electron" modified="2024-05-11T02:46:53.307Z" agent="Mozilla/5.0 (Windows NT 10.0; Win64; x64) AppleWebKit/537.36 (KHTML, like Gecko) draw.io/22.1.18 Chrome/120.0.6099.199 Electron/28.1.2 Safari/537.36" etag="I98jxIfsZLCnXQFUOKWq" version="22.1.18" type="device">
  <diagram name="第 1 页" id="xdJYr5QnFgsM4oIX343_">
    <mxGraphModel dx="1185" dy="683" grid="1" gridSize="10" guides="1" tooltips="1" connect="1" arrows="1" fold="1" page="1" pageScale="1" pageWidth="827" pageHeight="1169" math="0" shadow="0">
      <root>
        <mxCell id="0" />
        <mxCell id="1" parent="0" />
        <mxCell id="MzzEwMtkRJMroe7wmz-U-1" value="&lt;font style=&quot;font-size: 18px;&quot;&gt;探测器原始数据&lt;/font&gt;" style="rounded=0;whiteSpace=wrap;html=1;" parent="1" vertex="1">
          <mxGeometry x="160" y="40" width="200" height="80" as="geometry" />
        </mxCell>
        <mxCell id="MzzEwMtkRJMroe7wmz-U-2" value="&lt;font style=&quot;font-size: 18px;&quot;&gt;Base64编码数据&lt;/font&gt;" style="rounded=0;whiteSpace=wrap;html=1;" parent="1" vertex="1">
          <mxGeometry x="160" y="200" width="200" height="80" as="geometry" />
        </mxCell>
        <mxCell id="MzzEwMtkRJMroe7wmz-U-3" value="" style="endArrow=classic;html=1;rounded=0;exitX=0.5;exitY=1;exitDx=0;exitDy=0;entryX=0.5;entryY=0;entryDx=0;entryDy=0;" parent="1" source="MzzEwMtkRJMroe7wmz-U-1" target="MzzEwMtkRJMroe7wmz-U-2" edge="1">
          <mxGeometry width="50" height="50" relative="1" as="geometry">
            <mxPoint x="430" y="170" as="sourcePoint" />
            <mxPoint x="480" y="120" as="targetPoint" />
          </mxGeometry>
        </mxCell>
        <mxCell id="MzzEwMtkRJMroe7wmz-U-5" value="Base64编码" style="edgeLabel;html=1;align=center;verticalAlign=middle;resizable=0;points=[];" parent="MzzEwMtkRJMroe7wmz-U-3" vertex="1" connectable="0">
          <mxGeometry x="-0.0192" relative="1" as="geometry">
            <mxPoint as="offset" />
          </mxGeometry>
        </mxCell>
        <mxCell id="MzzEwMtkRJMroe7wmz-U-6" value="&lt;span style=&quot;font-size: 18px;&quot;&gt;二叉树结构化的数据&lt;/span&gt;" style="rounded=0;whiteSpace=wrap;html=1;" parent="1" vertex="1">
          <mxGeometry x="160" y="360" width="200" height="80" as="geometry" />
        </mxCell>
        <mxCell id="koFIYUmSVM0WMnowv7MK-1" value="" style="endArrow=classic;html=1;rounded=0;exitX=0.5;exitY=1;exitDx=0;exitDy=0;entryX=0.5;entryY=0;entryDx=0;entryDy=0;" parent="1" source="MzzEwMtkRJMroe7wmz-U-2" target="MzzEwMtkRJMroe7wmz-U-6" edge="1">
          <mxGeometry width="50" height="50" relative="1" as="geometry">
            <mxPoint x="270" y="320" as="sourcePoint" />
            <mxPoint x="320" y="270" as="targetPoint" />
          </mxGeometry>
        </mxCell>
        <mxCell id="koFIYUmSVM0WMnowv7MK-2" value="构建平衡二叉树" style="edgeLabel;html=1;align=center;verticalAlign=middle;resizable=0;points=[];" parent="koFIYUmSVM0WMnowv7MK-1" vertex="1" connectable="0">
          <mxGeometry x="-0.0014" y="-1" relative="1" as="geometry">
            <mxPoint as="offset" />
          </mxGeometry>
        </mxCell>
        <mxCell id="vl9c6h8ouT2UnFQykZ5D-2" value="" style="endArrow=classic;html=1;rounded=0;entryX=0.5;entryY=0;entryDx=0;entryDy=0;exitX=0.25;exitY=1;exitDx=0;exitDy=0;" parent="1" source="MzzEwMtkRJMroe7wmz-U-6" target="vl9c6h8ouT2UnFQykZ5D-3" edge="1">
          <mxGeometry width="50" height="50" relative="1" as="geometry">
            <mxPoint x="250" y="520" as="sourcePoint" />
            <mxPoint x="300" y="470" as="targetPoint" />
          </mxGeometry>
        </mxCell>
        <mxCell id="vl9c6h8ouT2UnFQykZ5D-6" value="先序遍历" style="edgeLabel;html=1;align=center;verticalAlign=middle;resizable=0;points=[];" parent="vl9c6h8ouT2UnFQykZ5D-2" vertex="1" connectable="0">
          <mxGeometry x="0.0087" relative="1" as="geometry">
            <mxPoint as="offset" />
          </mxGeometry>
        </mxCell>
        <mxCell id="vl9c6h8ouT2UnFQykZ5D-3" value="&lt;span style=&quot;font-size: 18px;&quot;&gt;先序遍历的数据&lt;/span&gt;" style="rounded=0;whiteSpace=wrap;html=1;" parent="1" vertex="1">
          <mxGeometry x="40" y="520" width="200" height="80" as="geometry" />
        </mxCell>
        <mxCell id="vl9c6h8ouT2UnFQykZ5D-4" value="&lt;span style=&quot;font-size: 18px;&quot;&gt;后序遍历的数据&lt;/span&gt;" style="rounded=0;whiteSpace=wrap;html=1;" parent="1" vertex="1">
          <mxGeometry x="280" y="520" width="200" height="80" as="geometry" />
        </mxCell>
        <mxCell id="vl9c6h8ouT2UnFQykZ5D-5" value="" style="endArrow=classic;html=1;rounded=0;exitX=0.75;exitY=1;exitDx=0;exitDy=0;entryX=0.5;entryY=0;entryDx=0;entryDy=0;" parent="1" source="MzzEwMtkRJMroe7wmz-U-6" target="vl9c6h8ouT2UnFQykZ5D-4" edge="1">
          <mxGeometry width="50" height="50" relative="1" as="geometry">
            <mxPoint x="310" y="450" as="sourcePoint" />
            <mxPoint x="360" y="400" as="targetPoint" />
          </mxGeometry>
        </mxCell>
        <mxCell id="vl9c6h8ouT2UnFQykZ5D-7" value="后序遍历" style="edgeLabel;html=1;align=center;verticalAlign=middle;resizable=0;points=[];" parent="vl9c6h8ouT2UnFQykZ5D-5" vertex="1" connectable="0">
          <mxGeometry x="0.0158" y="1" relative="1" as="geometry">
            <mxPoint as="offset" />
          </mxGeometry>
        </mxCell>
        <mxCell id="vl9c6h8ouT2UnFQykZ5D-8" value="&lt;span style=&quot;font-size: 18px;&quot;&gt;编码后的数据&lt;/span&gt;" style="rounded=0;whiteSpace=wrap;html=1;" parent="1" vertex="1">
          <mxGeometry x="160" y="680" width="200" height="80" as="geometry" />
        </mxCell>
        <mxCell id="vl9c6h8ouT2UnFQykZ5D-11" value="" style="endArrow=classic;html=1;rounded=0;exitX=0.5;exitY=1;exitDx=0;exitDy=0;entryX=0.25;entryY=0;entryDx=0;entryDy=0;" parent="1" source="vl9c6h8ouT2UnFQykZ5D-3" target="vl9c6h8ouT2UnFQykZ5D-8" edge="1">
          <mxGeometry width="50" height="50" relative="1" as="geometry">
            <mxPoint x="200" y="650" as="sourcePoint" />
            <mxPoint x="250" y="600" as="targetPoint" />
          </mxGeometry>
        </mxCell>
        <mxCell id="vl9c6h8ouT2UnFQykZ5D-13" value="合并" style="edgeLabel;html=1;align=center;verticalAlign=middle;resizable=0;points=[];" parent="vl9c6h8ouT2UnFQykZ5D-11" vertex="1" connectable="0">
          <mxGeometry x="-0.0054" y="-1" relative="1" as="geometry">
            <mxPoint as="offset" />
          </mxGeometry>
        </mxCell>
        <mxCell id="vl9c6h8ouT2UnFQykZ5D-12" value="" style="endArrow=classic;html=1;rounded=0;entryX=0.75;entryY=0;entryDx=0;entryDy=0;exitX=0.5;exitY=1;exitDx=0;exitDy=0;" parent="1" source="vl9c6h8ouT2UnFQykZ5D-4" target="vl9c6h8ouT2UnFQykZ5D-8" edge="1">
          <mxGeometry width="50" height="50" relative="1" as="geometry">
            <mxPoint x="200" y="650" as="sourcePoint" />
            <mxPoint x="250" y="600" as="targetPoint" />
          </mxGeometry>
        </mxCell>
        <mxCell id="vl9c6h8ouT2UnFQykZ5D-14" value="合并" style="edgeLabel;html=1;align=center;verticalAlign=middle;resizable=0;points=[];" parent="vl9c6h8ouT2UnFQykZ5D-12" vertex="1" connectable="0">
          <mxGeometry x="-0.0215" relative="1" as="geometry">
            <mxPoint as="offset" />
          </mxGeometry>
        </mxCell>
        <mxCell id="WGnxHTUc9GW3RpCpivGq-1" value="" style="endArrow=classic;html=1;rounded=0;exitX=1;exitY=0.5;exitDx=0;exitDy=0;entryX=0;entryY=0.5;entryDx=0;entryDy=0;" parent="1" source="MzzEwMtkRJMroe7wmz-U-1" target="WGnxHTUc9GW3RpCpivGq-3" edge="1">
          <mxGeometry width="50" height="50" relative="1" as="geometry">
            <mxPoint x="560" y="210" as="sourcePoint" />
            <mxPoint x="680" y="80" as="targetPoint" />
          </mxGeometry>
        </mxCell>
        <mxCell id="WGnxHTUc9GW3RpCpivGq-2" value="红外图像分析技术" style="edgeLabel;html=1;align=center;verticalAlign=middle;resizable=0;points=[];" parent="WGnxHTUc9GW3RpCpivGq-1" vertex="1" connectable="0">
          <mxGeometry x="-0.1071" y="1" relative="1" as="geometry">
            <mxPoint as="offset" />
          </mxGeometry>
        </mxCell>
        <mxCell id="WGnxHTUc9GW3RpCpivGq-3" value="&lt;font style=&quot;font-size: 18px;&quot;&gt;JPEG图像&lt;/font&gt;" style="rounded=0;whiteSpace=wrap;html=1;" parent="1" vertex="1">
          <mxGeometry x="560" y="40" width="200" height="80" as="geometry" />
        </mxCell>
        <mxCell id="WGnxHTUc9GW3RpCpivGq-6" value="&lt;font style=&quot;font-size: 18px;&quot;&gt;封装的JPEG图像&lt;/font&gt;" style="rounded=0;whiteSpace=wrap;html=1;" parent="1" vertex="1">
          <mxGeometry x="560" y="360" width="200" height="80" as="geometry" />
        </mxCell>
        <mxCell id="WGnxHTUc9GW3RpCpivGq-7" value="" style="endArrow=classic;html=1;rounded=0;exitX=0.5;exitY=1;exitDx=0;exitDy=0;entryX=0.5;entryY=0;entryDx=0;entryDy=0;" parent="1" source="WGnxHTUc9GW3RpCpivGq-3" target="WGnxHTUc9GW3RpCpivGq-6" edge="1">
          <mxGeometry width="50" height="50" relative="1" as="geometry">
            <mxPoint x="730" y="400" as="sourcePoint" />
            <mxPoint x="780" y="350" as="targetPoint" />
          </mxGeometry>
        </mxCell>
        <mxCell id="WGnxHTUc9GW3RpCpivGq-8" value="" style="endArrow=classic;html=1;rounded=0;exitX=1;exitY=0.5;exitDx=0;exitDy=0;entryX=0.5;entryY=1;entryDx=0;entryDy=0;" parent="1" source="vl9c6h8ouT2UnFQykZ5D-8" target="WGnxHTUc9GW3RpCpivGq-6" edge="1">
          <mxGeometry width="50" height="50" relative="1" as="geometry">
            <mxPoint x="730" y="400" as="sourcePoint" />
            <mxPoint x="780" y="350" as="targetPoint" />
            <Array as="points">
              <mxPoint x="660" y="720" />
            </Array>
          </mxGeometry>
        </mxCell>
        <mxCell id="WGnxHTUc9GW3RpCpivGq-9" value="隐写" style="edgeLabel;html=1;align=center;verticalAlign=middle;resizable=0;points=[];" parent="WGnxHTUc9GW3RpCpivGq-8" vertex="1" connectable="0">
          <mxGeometry x="0.5178" relative="1" as="geometry">
            <mxPoint as="offset" />
          </mxGeometry>
        </mxCell>
      </root>
    </mxGraphModel>
  </diagram>
</mxfile>
